<svg width="100" height="220" viewBox="0 0 100 220" fill="none" xmlns="http://www.w3.org/2000/svg">
<path d="M99 102.101H1C0.447715 102.101 0 102.548 0 103.1V107.189C0 107.741 0.447715 108.188 1 108.188H99C99.5523 108.188 100 107.741 100 107.189V103.1C100 102.548 99.5523 102.101 99 102.101Z" fill="#EE3E38"/>
<path d="M7.93163 190.869H0.248766V124.871H7.93163V190.869ZM53.0919 156.513H76.5153V187.031C73.8918 188.404 70.4689 189.509 66.2465 190.345C62.0365 191.194 57.7766 191.618 53.4667 191.618C46.9081 191.618 41.2553 190.277 36.5081 187.593C31.761 184.909 28.1195 181.04 25.5835 175.985C23.06 170.93 21.7983 164.876 21.7983 157.823C21.7983 150.834 23.0475 144.811 25.546 139.756C28.0445 134.701 31.6361 130.831 36.3208 128.148C41.0054 125.464 46.5333 124.122 52.9045 124.122C57.5267 124.122 61.7742 124.827 65.6468 126.238C69.5195 127.636 72.83 129.708 75.5783 132.454L72.6738 138.352C69.4882 135.606 66.3464 133.64 63.2483 132.454C60.1626 131.268 56.7147 130.675 52.9045 130.675C45.4715 130.675 39.7562 133.016 35.7586 137.696C31.761 142.377 29.7622 149.086 29.7622 157.823C29.7622 166.748 31.7922 173.532 35.8523 178.175C39.9123 182.831 45.8463 185.159 53.654 185.159C59.3381 185.159 64.6162 184.316 69.4882 182.631V162.504H53.0919V156.513ZM99.7512 190.869H92.0684V124.871H99.7512V190.869Z" fill="#EE3E38"/>
<path d="M3.84407 217.189C3.07606 217.189 2.43039 217.039 1.90707 216.74C1.38553 216.442 0.989024 216.025 0.71754 215.49C0.44427 214.954 0.294239 214.338 0.267448 213.642C0.258517 213.241 0.254052 212.817 0.254052 212.371C0.254052 211.925 0.258517 211.501 0.267448 211.099C0.294239 210.395 0.44427 209.776 0.71754 209.244C0.989024 208.714 1.38821 208.299 1.91511 208C2.442 207.702 3.08499 207.553 3.84407 207.553C4.46027 207.553 4.98716 207.644 5.42475 207.826C5.86234 208.009 6.21956 208.237 6.4964 208.508C6.77324 208.781 6.97864 209.056 7.1126 209.333C7.24655 209.609 7.318 209.841 7.32693 210.029C7.33586 210.109 7.31353 210.173 7.25995 210.221C7.20637 210.271 7.13492 210.296 7.04562 210.296H6.75092C6.67054 210.296 6.61249 210.276 6.57677 210.235C6.54105 210.196 6.50533 210.127 6.46961 210.029C6.3803 209.752 6.23117 209.486 6.0222 209.231C5.81144 208.978 5.53013 208.768 5.17827 208.602C4.82463 208.438 4.3799 208.356 3.84407 208.356C3.04927 208.356 2.4036 208.572 1.90707 209.003C1.41232 209.437 1.14709 210.158 1.11137 211.166C1.08458 211.969 1.08458 212.772 1.11137 213.576C1.14709 214.575 1.41232 215.293 1.90707 215.73C2.4036 216.168 3.04927 216.386 3.84407 216.386C4.37097 216.386 4.84428 216.285 5.26401 216.084C5.68373 215.884 6.01416 215.576 6.25528 215.16C6.4964 214.746 6.61696 214.218 6.61696 213.576V212.893H4.28613C4.19682 212.893 4.12538 212.863 4.0718 212.805C4.01821 212.747 3.99142 212.674 3.99142 212.585V212.398C3.99142 212.3 4.01821 212.224 4.0718 212.17C4.12538 212.117 4.19682 212.09 4.28613 212.09H7.15278C7.25102 212.09 7.32693 212.117 7.38051 212.17C7.43409 212.224 7.46088 212.3 7.46088 212.398V213.576C7.46088 214.289 7.32068 214.918 7.04026 215.463C6.75806 216.007 6.34726 216.431 5.80787 216.734C5.26668 217.038 4.61209 217.189 3.84407 217.189ZM9.88549 217.055H9.65776C9.56846 217.055 9.49701 217.029 9.44343 216.975C9.38985 216.922 9.36306 216.85 9.36306 216.761V207.847C9.36306 207.758 9.38985 207.686 9.44343 207.633C9.49701 207.579 9.56846 207.553 9.65776 207.553H9.88549C9.97479 207.553 10.0462 207.579 10.0998 207.633C10.1534 207.686 10.1802 207.758 10.1802 207.847V216.761C10.1802 216.85 10.1534 216.922 10.0998 216.975C10.0462 217.029 9.97479 217.055 9.88549 217.055ZM15.016 217.189C14.373 217.189 13.8345 217.055 13.4005 216.788C12.9683 216.52 12.6378 216.154 12.4092 215.69C12.1824 215.226 12.06 214.709 12.0422 214.138C12.0332 214.004 12.0288 213.816 12.0288 213.576C12.0288 213.335 12.0332 213.147 12.0422 213.013C12.06 212.433 12.1824 211.913 12.4092 211.453C12.6378 210.994 12.9683 210.631 13.4005 210.363C13.8345 210.096 14.373 209.962 15.016 209.962C15.659 209.962 16.1966 210.096 16.6288 210.363C17.0628 210.631 17.3933 210.994 17.6201 211.453C17.8487 211.913 17.972 212.433 17.9898 213.013C17.9988 213.147 18.0032 213.335 18.0032 213.576C18.0032 213.816 17.9988 214.004 17.9898 214.138C17.972 214.709 17.8487 215.226 17.6201 215.69C17.3933 216.154 17.0628 216.52 16.6288 216.788C16.1966 217.055 15.659 217.189 15.016 217.189ZM15.016 216.413C15.6411 216.413 16.1502 216.212 16.5431 215.811C16.936 215.409 17.1459 214.829 17.1727 214.071C17.1816 213.937 17.1861 213.772 17.1861 213.576C17.1861 213.379 17.1816 213.214 17.1727 213.08C17.1459 212.313 16.936 211.73 16.5431 211.332C16.1502 210.936 15.6411 210.738 15.016 210.738C14.3909 210.738 13.8818 210.936 13.4889 211.332C13.096 211.73 12.8861 212.313 12.8593 213.08C12.8504 213.214 12.8459 213.379 12.8459 213.576C12.8459 213.772 12.8504 213.937 12.8593 214.071C12.8861 214.829 13.096 215.409 13.4889 215.811C13.8818 216.212 14.3909 216.413 15.016 216.413ZM22.9167 217.189C22.363 217.189 21.9058 217.088 21.545 216.887C21.1824 216.687 20.8895 216.435 20.6663 216.132V216.761C20.6663 216.85 20.6395 216.922 20.5859 216.975C20.5323 217.029 20.4609 217.055 20.3716 217.055H20.1438C20.0545 217.055 19.9831 217.029 19.9295 216.975C19.8759 216.922 19.8491 216.85 19.8491 216.761V207.847C19.8491 207.758 19.8759 207.686 19.9295 207.633C19.9831 207.579 20.0545 207.553 20.1438 207.553H20.3716C20.4609 207.553 20.5323 207.579 20.5859 207.633C20.6395 207.686 20.6663 207.758 20.6663 207.847V211.019C20.8895 210.725 21.1824 210.475 21.545 210.27C21.9058 210.064 22.363 209.962 22.9167 209.962C23.4436 209.962 23.8857 210.055 24.2429 210.243C24.6001 210.43 24.8903 210.68 25.1136 210.992C25.3369 211.305 25.5021 211.653 25.6092 212.036C25.7164 212.42 25.7744 212.808 25.7834 213.201C25.7923 213.335 25.7968 213.46 25.7968 213.576C25.7968 213.692 25.7923 213.816 25.7834 213.95C25.7744 214.343 25.7164 214.731 25.6092 215.115C25.5021 215.498 25.3369 215.846 25.1136 216.159C24.8903 216.471 24.6001 216.721 24.2429 216.908C23.8857 217.096 23.4436 217.189 22.9167 217.189ZM22.8363 216.413C23.3632 216.413 23.7785 216.297 24.0821 216.065C24.3858 215.833 24.6046 215.53 24.7385 215.155C24.8725 214.78 24.9484 214.379 24.9662 213.95C24.9752 213.7 24.9752 213.451 24.9662 213.201C24.9484 212.772 24.8725 212.371 24.7385 211.996C24.6046 211.621 24.3858 211.318 24.0821 211.086C23.7785 210.854 23.3632 210.738 22.8363 210.738C22.3452 210.738 21.9415 210.854 21.6254 211.086C21.3075 211.318 21.0708 211.608 20.9154 211.956C20.7582 212.304 20.6752 212.656 20.6663 213.013C20.6573 213.147 20.6529 213.321 20.6529 213.535C20.6529 213.75 20.6573 213.924 20.6663 214.057C20.6841 214.423 20.7672 214.786 20.9154 215.147C21.0619 215.509 21.2914 215.811 21.604 216.052C21.9165 216.293 22.3273 216.413 22.8363 216.413ZM29.4806 217.189C29.0519 217.189 28.6572 217.1 28.2964 216.922C27.9338 216.743 27.6409 216.504 27.4176 216.204C27.1944 215.906 27.0828 215.57 27.0828 215.195C27.0828 214.588 27.3283 214.102 27.8195 213.736C28.3107 213.37 28.9492 213.134 29.7351 213.027L31.8516 212.732V212.264C31.8516 211.791 31.7069 211.418 31.4176 211.145C31.1264 210.874 30.6638 210.738 30.0298 210.738C29.5654 210.738 29.1903 210.829 28.9045 211.011C28.6188 211.195 28.4223 211.434 28.3151 211.729C28.2705 211.862 28.1857 211.929 28.0606 211.929H27.8463C27.7391 211.929 27.6632 211.9 27.6186 211.841C27.5739 211.784 27.5516 211.715 27.5516 211.635C27.5516 211.51 27.5989 211.354 27.6936 211.166C27.7865 210.979 27.9311 210.793 28.1276 210.61C28.3241 210.428 28.5786 210.274 28.8912 210.149C29.2037 210.024 29.5833 209.962 30.0298 209.962C30.5567 209.962 30.9925 210.033 31.3372 210.176C31.6801 210.319 31.948 210.503 32.1409 210.73C32.332 210.958 32.4678 211.211 32.5482 211.488C32.6285 211.764 32.6687 212.036 32.6687 212.304V216.761C32.6687 216.85 32.6419 216.922 32.5883 216.975C32.5348 217.029 32.4633 217.055 32.374 217.055H32.1463C32.057 217.055 31.9855 217.029 31.932 216.975C31.8784 216.922 31.8516 216.85 31.8516 216.761V216.132C31.7444 216.293 31.5926 216.453 31.3961 216.614C31.1997 216.774 30.9478 216.91 30.6406 217.021C30.3316 217.133 29.9449 217.189 29.4806 217.189ZM29.6145 216.413C30.0253 216.413 30.4004 216.324 30.7397 216.145C31.0791 215.967 31.3497 215.692 31.5515 215.321C31.7516 214.951 31.8516 214.486 31.8516 213.924V213.468L30.1236 213.709C29.3913 213.808 28.8376 213.977 28.4625 214.218C28.0874 214.459 27.8999 214.762 27.8999 215.128C27.8999 215.423 27.9847 215.663 28.1544 215.851C28.3241 216.038 28.5411 216.178 28.8054 216.271C29.068 216.366 29.3377 216.413 29.6145 216.413ZM35.321 217.055H35.0933C35.004 217.055 34.9326 217.029 34.879 216.975C34.8254 216.922 34.7986 216.85 34.7986 216.761V207.847C34.7986 207.758 34.8254 207.686 34.879 207.633C34.9326 207.579 35.004 207.553 35.0933 207.553H35.321C35.4103 207.553 35.4818 207.579 35.5354 207.633C35.589 207.686 35.6157 207.758 35.6157 207.847V216.761C35.6157 216.85 35.589 216.922 35.5354 216.975C35.4818 217.029 35.4103 217.055 35.321 217.055ZM43.9317 217.189C43.3602 217.189 42.8512 217.078 42.4046 216.855C41.9581 216.632 41.6098 216.324 41.3598 215.931C41.1097 215.539 40.9847 215.092 40.9847 214.593C40.9847 214.173 41.0767 213.809 41.2606 213.501C41.4428 213.194 41.6813 212.922 41.976 212.687C42.2707 212.449 42.5832 212.233 42.9137 212.036C42.4582 211.555 42.1367 211.141 41.9492 210.797C41.7616 210.454 41.6679 210.087 41.6679 209.694C41.6679 209.301 41.7688 208.945 41.9706 208.623C42.1707 208.302 42.4475 208.043 42.8011 207.847C43.153 207.651 43.5522 207.553 43.9987 207.553C44.4542 207.553 44.856 207.646 45.2043 207.834C45.5526 208.021 45.8277 208.275 46.0295 208.597C46.2295 208.918 46.3295 209.284 46.3295 209.694C46.3295 210.105 46.2295 210.459 46.0295 210.757C45.8277 211.057 45.566 211.32 45.2445 211.546C44.923 211.775 44.5836 211.992 44.2264 212.197L46.785 214.7C46.9636 214.396 47.1181 214.062 47.2485 213.696C47.3771 213.33 47.4682 212.915 47.5217 212.451C47.5396 212.255 47.6378 212.157 47.8165 212.157H48.071C48.1603 212.157 48.2317 212.184 48.2853 212.237C48.3389 212.291 48.3657 212.362 48.3657 212.451C48.3567 212.656 48.3344 212.871 48.2987 213.094C48.263 213.317 48.2076 213.551 48.1326 213.795C48.0558 214.041 47.9593 214.289 47.8432 214.539C47.7271 214.789 47.5798 215.043 47.4012 215.302L48.714 216.587C48.7943 216.667 48.8345 216.739 48.8345 216.801C48.8345 216.881 48.8122 216.944 48.7675 216.989C48.7229 217.033 48.6559 217.055 48.5666 217.055H48.2719C48.1826 217.055 48.1094 217.042 48.0522 217.015C47.9933 216.989 47.9415 216.957 47.8968 216.922L46.9055 215.931C46.5662 216.288 46.1509 216.587 45.6598 216.828C45.1686 217.069 44.5926 217.189 43.9317 217.189ZM43.9317 216.386C44.3336 216.386 44.7399 216.299 45.1507 216.124C45.5615 215.951 45.9411 215.686 46.2894 215.329L43.4763 212.612C43.0298 212.862 42.644 213.138 42.3189 213.442C41.992 213.745 41.8286 214.129 41.8286 214.593C41.8286 214.976 41.9269 215.302 42.1233 215.57C42.3198 215.837 42.5788 216.04 42.9003 216.177C43.2218 216.317 43.5656 216.386 43.9317 216.386ZM43.6504 211.608C43.9719 211.43 44.2738 211.248 44.556 211.065C44.8364 210.883 45.0614 210.68 45.2311 210.457C45.4008 210.234 45.4856 209.98 45.4856 209.694C45.4856 209.284 45.3427 208.958 45.057 208.717C44.7712 208.476 44.4184 208.356 43.9987 208.356C43.6058 208.356 43.2602 208.473 42.9619 208.709C42.6618 208.946 42.5118 209.275 42.5118 209.694C42.5118 209.873 42.5431 210.048 42.6056 210.221C42.6681 210.396 42.7824 210.591 42.9485 210.805C43.1128 211.019 43.3468 211.287 43.6504 211.608ZM56.7245 217.189C56.0012 217.189 55.3867 217.073 54.8813 216.841C54.3776 216.609 53.9918 216.31 53.7239 215.945C53.456 215.579 53.3131 215.191 53.2952 214.78C53.2952 214.709 53.322 214.646 53.3756 214.593C53.4292 214.539 53.4962 214.512 53.5766 214.512H53.8445C53.9338 214.512 54.0025 214.539 54.0508 214.593C54.1008 214.646 54.1302 214.709 54.1392 214.78C54.1749 215.03 54.2865 215.277 54.4741 215.522C54.6616 215.768 54.9384 215.973 55.3046 216.137C55.6707 216.303 56.1441 216.386 56.7245 216.386C57.5997 216.386 58.2382 216.227 58.6401 215.91C59.042 215.594 59.2429 215.168 59.2429 214.633C59.2429 214.276 59.1375 213.988 58.9268 213.768C58.7178 213.551 58.399 213.354 57.9703 213.179C57.5417 213.006 56.9924 212.813 56.3227 212.598C55.6886 212.393 55.1662 212.181 54.7554 211.961C54.3446 211.744 54.0427 211.479 53.8498 211.166C53.6587 210.854 53.5632 210.453 53.5632 209.962C53.5632 209.507 53.6837 209.098 53.9248 208.736C54.166 208.375 54.516 208.088 54.9751 207.874C55.4359 207.66 55.9967 207.553 56.6575 207.553C57.1844 207.553 57.6444 207.624 58.0373 207.767C58.4302 207.91 58.7562 208.099 59.0152 208.334C59.2742 208.572 59.4706 208.826 59.6046 209.097C59.7385 209.37 59.81 209.636 59.8189 209.895C59.8189 209.957 59.7966 210.017 59.7519 210.074C59.7073 210.133 59.6358 210.163 59.5376 210.163H59.2697C59.225 210.163 59.1688 210.145 59.1009 210.109C59.0348 210.073 58.9928 210.002 58.975 209.895C58.9214 209.449 58.6865 209.08 58.2704 208.789C57.856 208.5 57.3184 208.356 56.6575 208.356C55.9967 208.356 55.4564 208.485 55.0367 208.744C54.6169 209.003 54.4071 209.409 54.4071 209.962C54.4071 210.319 54.5009 210.61 54.6884 210.837C54.8759 211.066 55.1706 211.266 55.5725 211.439C55.9744 211.614 56.4923 211.804 57.1264 212.01C57.7962 212.224 58.3499 212.438 58.7874 212.652C59.225 212.866 59.551 213.127 59.7653 213.434C59.9797 213.742 60.0868 214.142 60.0868 214.633C60.0868 215.177 59.9502 215.639 59.6769 216.017C59.4054 216.397 59.0196 216.687 58.5195 216.887C58.0194 217.088 57.4211 217.189 56.7245 217.189ZM63.717 217.189C63.2884 217.189 62.8927 217.1 62.5302 216.922C62.1694 216.743 61.8774 216.504 61.6541 216.204C61.4308 215.906 61.3192 215.57 61.3192 215.195C61.3192 214.588 61.5648 214.102 62.056 213.736C62.5471 213.37 63.1857 213.134 63.9715 213.027L66.0881 212.732V212.264C66.0881 211.791 65.9425 211.418 65.6513 211.145C65.362 210.874 64.9003 210.738 64.2662 210.738C63.8019 210.738 63.4268 210.829 63.141 211.011C62.8552 211.195 62.6588 211.434 62.5516 211.729C62.507 211.862 62.4221 211.929 62.2971 211.929H62.0828C61.9756 211.929 61.8997 211.9 61.855 211.841C61.8104 211.784 61.7881 211.715 61.7881 211.635C61.7881 211.51 61.8345 211.354 61.9274 211.166C62.022 210.979 62.1676 210.793 62.3641 210.61C62.5605 210.428 62.8151 210.274 63.1276 210.149C63.4402 210.024 63.8197 209.962 64.2662 209.962C64.7931 209.962 65.2281 210.033 65.571 210.176C65.9157 210.319 66.1836 210.503 66.3747 210.73C66.5676 210.958 66.7042 211.211 66.7846 211.488C66.865 211.764 66.9052 212.036 66.9052 212.304V216.761C66.9052 216.85 66.8784 216.922 66.8248 216.975C66.7712 217.029 66.6998 217.055 66.6105 217.055H66.3828C66.2934 217.055 66.222 217.029 66.1684 216.975C66.1148 216.922 66.0881 216.85 66.0881 216.761V216.132C65.9809 216.293 65.8291 216.453 65.6326 216.614C65.4361 216.774 65.1834 216.91 64.8744 217.021C64.5672 217.133 64.1814 217.189 63.717 217.189ZM63.851 216.413C64.2618 216.413 64.6369 216.324 64.9762 216.145C65.3156 215.967 65.5853 215.692 65.7853 215.321C65.9871 214.951 66.0881 214.486 66.0881 213.924V213.468L64.36 213.709C63.6277 213.808 63.074 213.977 62.699 214.218C62.3239 214.459 62.1363 214.762 62.1363 215.128C62.1363 215.423 62.2212 215.663 62.3909 215.851C62.5605 216.038 62.7767 216.178 63.0392 216.271C63.3035 216.366 63.5741 216.413 63.851 216.413ZM71.6311 217.055H71.4168C71.2739 217.055 71.165 217.024 71.09 216.962C71.0132 216.899 70.9524 216.819 70.9078 216.721L68.443 210.511C68.4251 210.457 68.4162 210.408 68.4162 210.363C68.4162 210.292 68.443 210.229 68.4966 210.176C68.5502 210.122 68.6127 210.096 68.6841 210.096H68.9654C69.0547 210.096 69.1244 210.12 69.1744 210.168C69.2226 210.218 69.2512 210.261 69.2601 210.296L71.524 216.078L73.7878 210.296C73.8057 210.261 73.837 210.218 73.8816 210.168C73.9263 210.12 73.9932 210.096 74.0825 210.096H74.3639C74.4353 210.096 74.4978 210.122 74.5514 210.176C74.605 210.229 74.6318 210.292 74.6318 210.363C74.6318 210.408 74.6228 210.457 74.605 210.511L72.1402 216.721C72.1045 216.819 72.0464 216.899 71.966 216.962C71.8857 217.024 71.774 217.055 71.6311 217.055ZM76.7215 217.055H76.4937C76.4044 217.055 76.333 217.029 76.2794 216.975C76.2258 216.922 76.199 216.85 76.199 216.761V210.39C76.199 210.301 76.2258 210.229 76.2794 210.176C76.333 210.122 76.4044 210.096 76.4937 210.096H76.7215C76.8108 210.096 76.8822 210.122 76.9358 210.176C76.9894 210.229 77.0162 210.301 77.0162 210.39V216.761C77.0162 216.85 76.9894 216.922 76.9358 216.975C76.8822 217.029 76.8108 217.055 76.7215 217.055ZM76.8554 208.663H76.3464C76.2571 208.663 76.1856 208.637 76.1321 208.583C76.0785 208.53 76.0517 208.458 76.0517 208.369V207.86C76.0517 207.771 76.0785 207.697 76.1321 207.638C76.1856 207.581 76.2571 207.553 76.3464 207.553H76.8554C76.9447 207.553 77.0188 207.581 77.0778 207.638C77.1349 207.697 77.1635 207.771 77.1635 207.86V208.369C77.1635 208.458 77.1349 208.53 77.0778 208.583C77.0188 208.637 76.9447 208.663 76.8554 208.663ZM79.7087 217.055H79.481C79.3917 217.055 79.3202 217.029 79.2666 216.975C79.2131 216.922 79.1863 216.85 79.1863 216.761V210.39C79.1863 210.301 79.2131 210.229 79.2666 210.176C79.3202 210.122 79.3917 210.096 79.481 210.096H79.7087C79.798 210.096 79.8694 210.122 79.923 210.176C79.9766 210.229 80.0034 210.301 80.0034 210.39V211.019C80.2445 210.707 80.5365 210.453 80.8795 210.256C81.2242 210.06 81.6823 209.962 82.2538 209.962C82.8611 209.962 83.3675 210.093 83.7729 210.355C84.1801 210.619 84.4838 210.976 84.6838 211.426C84.8856 211.878 84.9866 212.389 84.9866 212.96V216.761C84.9866 216.85 84.9598 216.922 84.9062 216.975C84.8526 217.029 84.7812 217.055 84.6919 217.055H84.4641C84.3748 217.055 84.3034 217.029 84.2498 216.975C84.1962 216.922 84.1694 216.85 84.1694 216.761V213.027C84.1694 212.313 83.9953 211.753 83.647 211.346C83.2987 210.941 82.7897 210.738 82.1199 210.738C81.4858 210.738 80.9741 210.941 80.5848 211.346C80.1972 211.753 80.0034 212.313 80.0034 213.027V216.761C80.0034 216.85 79.9766 216.922 79.923 216.975C79.8694 217.029 79.798 217.055 79.7087 217.055ZM89.6884 220C89.1169 220 88.6498 219.924 88.2872 219.772C87.9264 219.621 87.6451 219.436 87.4433 219.218C87.2433 218.999 87.1031 218.78 87.0227 218.563C86.9423 218.343 86.8977 218.166 86.8887 218.033C86.8798 217.943 86.9066 217.87 86.9691 217.813C87.0298 217.754 87.1004 217.725 87.1808 217.725H87.371C87.4424 217.725 87.5049 217.741 87.5585 217.773C87.6121 217.803 87.6568 217.881 87.6925 218.006C87.7461 218.149 87.8327 218.316 87.9523 218.509C88.072 218.7 88.264 218.867 88.5284 219.01C88.7909 219.152 89.1553 219.224 89.6214 219.224C90.1126 219.224 90.5234 219.161 90.8538 219.036C91.1825 218.911 91.4343 218.691 91.6093 218.375C91.7826 218.057 91.8692 217.618 91.8692 217.055V216.132C91.646 216.435 91.3539 216.687 90.9931 216.887C90.6323 217.088 90.1751 217.189 89.6214 217.189C89.1035 217.189 88.6632 217.096 88.3006 216.908C87.9398 216.721 87.6478 216.471 87.4246 216.159C87.2013 215.846 87.0352 215.498 86.9262 215.115C86.8209 214.731 86.7637 214.343 86.7548 213.95C86.7458 213.7 86.7458 213.451 86.7548 213.201C86.7637 212.808 86.8209 212.42 86.9262 212.036C87.0352 211.653 87.2013 211.305 87.4246 210.992C87.6478 210.68 87.9398 210.43 88.3006 210.243C88.6632 210.055 89.1035 209.962 89.6214 209.962C90.1751 209.962 90.6323 210.064 90.9931 210.27C91.3539 210.475 91.646 210.725 91.8692 211.019V210.403C91.8692 210.314 91.896 210.24 91.9496 210.181C92.005 210.124 92.0773 210.096 92.1666 210.096H92.3809C92.4702 210.096 92.5435 210.124 92.6006 210.181C92.6578 210.24 92.6863 210.314 92.6863 210.403V216.922C92.6863 217.493 92.6024 218.01 92.4345 218.474C92.2648 218.938 91.963 219.309 91.529 219.585C91.0949 219.862 90.4814 220 89.6884 220ZM89.7018 216.413C90.2091 216.413 90.619 216.293 90.9315 216.052C91.2441 215.811 91.4745 215.509 91.6227 215.147C91.771 214.786 91.8531 214.423 91.8692 214.057C91.8782 213.924 91.8826 213.763 91.8826 213.576C91.8826 213.388 91.8782 213.228 91.8692 213.094C91.8531 212.728 91.771 212.364 91.6227 212.002C91.4745 211.641 91.2441 211.34 90.9315 211.099C90.619 210.859 90.2091 210.738 89.7018 210.738C89.1821 210.738 88.7686 210.854 88.4614 211.086C88.1524 211.318 87.9309 211.621 87.797 211.996C87.663 212.371 87.588 212.772 87.5719 213.201C87.563 213.451 87.563 213.7 87.5719 213.95C87.588 214.379 87.663 214.78 87.797 215.155C87.9309 215.53 88.1524 215.833 88.4614 216.065C88.7686 216.297 89.1821 216.413 89.7018 216.413ZM97.0801 217.189C96.6157 217.189 96.2165 217.127 95.8825 217.002C95.5468 216.877 95.2717 216.727 95.0574 216.552C94.843 216.379 94.685 216.208 94.5832 216.038C94.4796 215.869 94.4233 215.739 94.4144 215.65C94.4054 215.552 94.4367 215.478 94.5081 215.428C94.5796 215.38 94.6466 215.356 94.7091 215.356H94.91C94.9636 215.356 95.0109 215.365 95.052 215.382C95.0913 215.4 95.1422 215.449 95.2047 215.53C95.3208 215.681 95.4548 215.826 95.6066 215.963C95.7584 216.103 95.9531 216.212 96.1906 216.293C96.4264 216.373 96.7229 216.413 97.0801 216.413C97.6159 216.413 98.058 216.31 98.4063 216.105C98.7546 215.9 98.9287 215.597 98.9287 215.195C98.9287 214.945 98.8599 214.744 98.7224 214.593C98.5831 214.441 98.3482 214.307 98.0178 214.191C97.6874 214.075 97.2409 213.955 96.6782 213.83C96.1156 213.696 95.6852 213.535 95.3869 213.348C95.0868 213.161 94.8832 212.944 94.7761 212.698C94.6689 212.453 94.6153 212.188 94.6153 211.902C94.6153 211.59 94.7046 211.284 94.8832 210.984C95.0618 210.686 95.3279 210.441 95.6816 210.248C96.0335 210.057 96.4773 209.962 97.0131 209.962C97.4507 209.962 97.824 210.02 98.133 210.136C98.4402 210.252 98.692 210.392 98.8885 210.556C99.085 210.722 99.2305 210.885 99.3252 211.046C99.4181 211.207 99.469 211.336 99.4779 211.434C99.4868 211.523 99.46 211.595 99.3975 211.648C99.335 211.702 99.2636 211.729 99.1832 211.729H98.9823C98.9108 211.729 98.8528 211.712 98.8081 211.68C98.7635 211.65 98.7233 211.608 98.6876 211.555C98.5983 211.412 98.4911 211.278 98.3661 211.153C98.2411 211.028 98.0741 210.927 97.8651 210.85C97.6543 210.776 97.3703 210.738 97.0131 210.738C96.4773 210.738 96.0799 210.847 95.8209 211.065C95.5619 211.284 95.4324 211.563 95.4324 211.902C95.4324 212.099 95.486 212.271 95.5932 212.419C95.7004 212.565 95.9013 212.698 96.196 212.818C96.4907 212.939 96.9193 213.067 97.482 213.201C98.0535 213.326 98.5045 213.479 98.8349 213.661C99.1654 213.845 99.4002 214.062 99.5395 214.312C99.6771 214.562 99.7458 214.856 99.7458 215.195C99.7458 215.552 99.6458 215.882 99.4458 216.185C99.2439 216.489 98.9448 216.732 98.5483 216.914C98.15 217.097 97.6606 217.189 97.0801 217.189Z" fill="#EE3E38"/>
<path d="M68.4043 29.2996C80.9713 41.1686 85.403 58.6413 60.6169 74.0834C64.1048 69.3653 66.0346 64.7065 66.4581 60.0391C67.3694 49.971 61.0864 41.7794 54.1594 34.4265C44.0062 23.648 43.2511 13.2505 51.7821 1.7061C50.0238 16.8897 59.627 21.0094 68.4043 29.2996ZM41.122 84.9375C47.0476 72.4405 48.0939 65.5002 33.2675 51.4866C29.2391 47.679 26.1278 43.7996 23.9632 39.9154C21.2026 46.0763 19.015 59.1411 27.0717 66.6606C32.521 71.7463 40.0076 74.7976 41.122 84.9375ZM52.0657 36.395C43.896 27.7208 37.9704 15.5608 49.4699 0C18.3251 12.1514 16.5313 31.7142 35.2414 49.3994C51.006 64.2977 50.1886 72.5238 43.7206 86.1668C74.2638 63.6677 63.5643 48.6019 52.0657 36.395Z" fill="#EE3E38"/>
</svg>
